<!DOCTYPE svg PUBLIC "-//W3C//DTD SVG 1.1//EN" "http://www.w3.org/Graphics/SVG/1.1/DTD/svg11.dtd">
<svg version="1.2" baseProfile="tiny" id="Layer_1" xmlns="http://www.w3.org/2000/svg" xmlns:xlink="http://www.w3.org/1999/xlink"
	 x="0px" y="0px" width="10px" height="10px" viewBox="0 0 10 10" xml:space="preserve">
<g display="none">
	<path display="inline" fill-rule="evenodd" fill="#1887A3" d="M9.575,2.202c-0.498-0.41-1.233-0.338-1.644,0.16L4.235,7.243
		L2.836,6.226C2.338,5.816,1.603,5.888,1.192,6.385c-0.409,0.498-0.338,1.234,0.16,1.644l2.351,1.71
		c0.259,0.213,0.58,0.29,0.888,0.251C4.896,9.965,5.19,9.825,5.399,9.57l4.335-5.725C10.144,3.347,10.072,2.611,9.575,2.202z"/>
</g>
<path fill-rule="evenodd" fill="#4C4C4C" d="M4.657,7.707c-0.391,0.391-1.023,0.391-1.414,0l0,0c-0.391-0.392-0.391-1.023,0-1.415
	L7.485,2.05c0.391-0.391,1.022-0.391,1.415,0l0,0c0.391,0.391,0.389,1.023,0,1.414L4.657,7.707z"/>
<path fill-rule="evenodd" fill="#4C4C4C" d="M4.657,6.292c0.391,0.392,0.391,1.023,0,1.415l0,0c-0.391,0.391-1.023,0.391-1.414,0
	L1.293,6c-0.391-0.391-0.391-1.023,0-1.414l0,0c0.391-0.391,1.023-0.391,1.414,0L4.657,6.292z"/>
</svg>
